<?xml version="1.0" encoding="UTF-8"?>
<svg width="58px" height="58px" viewBox="0 0 58 58" version="1.1" xmlns="http://www.w3.org/2000/svg" xmlns:xlink="http://www.w3.org/1999/xlink">
    <!-- Generator: sketchtool 62 (101010) - https://sketch.com -->
    <title>A5D9E893-3A21-49AE-8749-432DEBF7FBFB_rounded</title>
    <desc>Created with sketchtool.</desc>
    <defs>
        <path d="M45.9166667,9.66666667 L35.815,9.66666667 C34.8,6.86333333 32.1416667,4.83333333 29,4.83333333 C25.8583333,4.83333333 23.2,6.86333333 22.185,9.66666667 L12.0833333,9.66666667 C9.425,9.66666667 7.25,11.8416667 7.25,14.5 L7.25,48.3333333 C7.25,50.9916667 9.425,53.1666667 12.0833333,53.1666667 L45.9166667,53.1666667 C48.575,53.1666667 50.75,50.9916667 50.75,48.3333333 L50.75,14.5 C50.75,11.8416667 48.575,9.66666667 45.9166667,9.66666667 Z M29,9.66666667 C30.3291667,9.66666667 31.4166667,10.7541667 31.4166667,12.0833333 C31.4166667,13.4125 30.3291667,14.5 29,14.5 C27.6708333,14.5 26.5833333,13.4125 26.5833333,12.0833333 C26.5833333,10.7541667 27.6708333,9.66666667 29,9.66666667 Z M31.4166667,43.5 L19.3333333,43.5 C18.0041667,43.5 16.9166667,42.4125 16.9166667,41.0833333 C16.9166667,39.7541667 18.0041667,38.6666667 19.3333333,38.6666667 L31.4166667,38.6666667 C32.7458333,38.6666667 33.8333333,39.7541667 33.8333333,41.0833333 C33.8333333,42.4125 32.7458333,43.5 31.4166667,43.5 Z M38.6666667,33.8333333 L19.3333333,33.8333333 C18.0041667,33.8333333 16.9166667,32.7458333 16.9166667,31.4166667 C16.9166667,30.0875 18.0041667,29 19.3333333,29 L38.6666667,29 C39.9958333,29 41.0833333,30.0875 41.0833333,31.4166667 C41.0833333,32.7458333 39.9958333,33.8333333 38.6666667,33.8333333 Z M38.6666667,24.1666667 L19.3333333,24.1666667 C18.0041667,24.1666667 16.9166667,23.0791667 16.9166667,21.75 C16.9166667,20.4208333 18.0041667,19.3333333 19.3333333,19.3333333 L38.6666667,19.3333333 C39.9958333,19.3333333 41.0833333,20.4208333 41.0833333,21.75 C41.0833333,23.0791667 39.9958333,24.1666667 38.6666667,24.1666667 Z" id="path-1"></path>
        <rect id="path-3" x="0" y="0" width="58" height="58"></rect>
    </defs>
    <g id="Asset-Artboard-Page" stroke="none" stroke-width="1" fill="none" fill-rule="evenodd">
        <g id="icon/device/graphicon/device/eq_24px-icon/action/assignment_24px">
            <mask id="mask-2" fill="white">
                <use xlink:href="#path-1"></use>
            </mask>
            <g id="icon/action/assignment_24px" fill-rule="nonzero"></g>
            <g id="↳-Color-✱-/-Color-/-Icons-/-Primary-or-Secondary" mask="url(#mask-2)">
                <g id="↳-Tonal-Palette-✱-/-Color-/-Primary-/-Main">
                    <mask id="mask-4" fill="white">
                        <use xlink:href="#path-3"></use>
                    </mask>
                    <g id="Background"></g>
                    <g id="↳-Tonal-Palette-✱-/-Color-/-Primary-/-800" mask="url(#mask-4)" fill="#2E843B">
                        <rect id="Rectangle-13" x="0" y="0" width="58" height="58"></rect>
                    </g>
                </g>
            </g>
        </g>
    </g>
</svg>