<svg id="Layer_1" data-name="Layer 1" xmlns="http://www.w3.org/2000/svg" viewBox="0 0 203.57 136"><defs><style>.cls-1{fill:#2d3033;}.cls-2{fill:#fff;}.cls-3{fill:#36b24a;}.cls-4{font-size:25.42px;fill:#f15623;font-family:Arial-BoldMT, Arial;font-weight:700;}.cls-5{letter-spacing:-0.02em;}</style></defs><rect class="cls-1" width="203.57" height="136"/><path class="cls-2" d="M59.63,93.65h0V27a8.65,8.65,0,0,1,8.65-8.65h0V85A8.66,8.66,0,0,1,59.63,93.65Z" transform="translate(-0.06 -0.41)"/><path class="cls-3" d="M42.44,93.65h0V38.87a8.66,8.66,0,0,1,8.65-8.66h0V85A8.65,8.65,0,0,1,42.44,93.65Z" transform="translate(-0.06 -0.41)"/><path class="cls-3" d="M25.26,93.65h0V50.73a8.66,8.66,0,0,1,8.65-8.66h0V85A8.66,8.66,0,0,1,25.26,93.65Z" transform="translate(-0.06 -0.41)"/><path class="cls-3" d="M8.07,93.65h0V62.59a8.65,8.65,0,0,1,8.65-8.65h0V85A8.65,8.65,0,0,1,8.07,93.65Z" transform="translate(-0.06 -0.41)"/><path class="cls-2" d="M100.59,94.09a27.33,27.33,0,0,1-11.24-2.21,17.16,17.16,0,0,1-7.9-7.08q-2.92-4.87-2.93-13.09V40.81q0-8.2,2.93-13.09a17.16,17.16,0,0,1,7.9-7.08,27.5,27.5,0,0,1,11.24-2.21,27.89,27.89,0,0,1,11.3,2.21,17.13,17.13,0,0,1,8,7.08q2.93,4.88,2.93,13.09v30.9q0,8.22-2.93,13.09a17.13,17.13,0,0,1-8,7.08A27.72,27.72,0,0,1,100.59,94.09Zm0-7.8c4.25,0,7.56-1.18,10-3.54s3.59-6,3.59-11V40.81q0-7.48-3.59-11c-2.4-2.37-5.71-3.55-10-3.55s-7.54,1.18-9.9,3.55-3.54,6-3.54,11v30.9q0,7.5,3.54,11T100.59,86.29Z" transform="translate(-0.06 -0.41)"/><path class="cls-2" d="M140.94,93.48a6,6,0,0,1-2.93-.77,2.51,2.51,0,0,1-1.39-2.31v-69A2.38,2.38,0,0,1,138,19.1a6.76,6.76,0,0,1,2.93-.67,5.76,5.76,0,0,1,2.77.62,6.72,6.72,0,0,1,2,1.79,18.25,18.25,0,0,1,1.85,3l25.46,50V21.41a2.38,2.38,0,0,1,1.38-2.26,6.28,6.28,0,0,1,2.93-.72,6.19,6.19,0,0,1,3,.72,2.39,2.39,0,0,1,1.33,2.26v69a2.51,2.51,0,0,1-1.33,2.31,5.91,5.91,0,0,1-3,.77,4.71,4.71,0,0,1-3-1.13A9.8,9.8,0,0,1,172,89.57L145.25,37.94V90.4a2.52,2.52,0,0,1-1.34,2.31A5.87,5.87,0,0,1,140.94,93.48Z" transform="translate(-0.06 -0.41)"/><text class="cls-4" transform="translate(57.63 126.35)">CONTRO<tspan class="cls-5" x="110.16" y="0">L</tspan></text></svg>