<?xml version="1.0" encoding="utf-8"?>
<!-- Generator: Adobe Illustrator 23.0.6, SVG Export Plug-In . SVG Version: 6.00 Build 0)  -->
<svg version="1.1" id="Layer_1" xmlns="http://www.w3.org/2000/svg" xmlns:xlink="http://www.w3.org/1999/xlink" x="0px" y="0px"
	 viewBox="0 0 1024 768" style="enable-background:new 0 0 1024 768;" xml:space="preserve">
<style type="text/css">
	.st0{fill:#36B24A;}
	.st1{fill:#F15623;}
	.st2{font-family:'Arial-BoldMT';}
	.st3{font-size:27.4426px;}
</style>
<g>
	<path class="st0" d="M446.47,407.73L446.47,407.73v-66.64c0-4.78,3.87-8.65,8.65-8.65l0,0v66.64
		C455.12,403.86,451.25,407.73,446.47,407.73z"/>
	<path class="st0" d="M429.29,407.73L429.29,407.73v-54.78c0-4.78,3.87-8.65,8.65-8.65l0,0v54.78
		C437.94,403.86,434.06,407.73,429.29,407.73z"/>
	<path class="st0" d="M412.1,407.73L412.1,407.73v-42.92c0-4.78,3.87-8.65,8.65-8.65l0,0v42.92
		C420.75,403.86,416.88,407.73,412.1,407.73z"/>
	<path class="st0" d="M394.92,407.73L394.92,407.73l0-31.06c0-4.78,3.87-8.65,8.65-8.65l0,0v31.06
		C403.57,403.86,399.69,407.73,394.92,407.73z"/>
</g>
<g>
	<g>
		<path d="M451.4,407.56c-1.03,0-2-0.26-2.93-0.77c-0.92-0.51-1.39-1.28-1.39-2.31V335.5c0-1.03,0.46-1.78,1.39-2.26
			c0.92-0.48,1.9-0.72,2.93-0.72c1.09,0,2.09,0.24,2.98,0.72c0.89,0.48,1.33,1.23,1.33,2.26v68.99c0,1.03-0.45,1.8-1.33,2.31
			C453.48,407.3,452.49,407.56,451.4,407.56z"/>
		<path d="M491.74,408.18c-4.18,0-7.92-0.73-11.24-2.21c-3.32-1.47-5.95-3.83-7.9-7.08c-1.95-3.25-2.93-7.61-2.93-13.09v-30.9
			c0-5.47,0.98-9.84,2.93-13.09c1.95-3.25,4.58-5.61,7.9-7.08c3.32-1.47,7.07-2.21,11.24-2.21c4.17,0,7.94,0.74,11.29,2.21
			c3.35,1.47,6.01,3.83,7.96,7.08c1.95,3.25,2.92,7.61,2.92,13.09v30.9c0,5.48-0.97,9.84-2.92,13.09c-1.95,3.25-4.6,5.61-7.96,7.08
			C499.68,407.44,495.91,408.18,491.74,408.18z M491.74,400.38c4.24,0,7.56-1.18,9.96-3.54c2.39-2.36,3.59-6.04,3.59-11.04v-30.9
			c0-4.99-1.2-8.67-3.59-11.04c-2.4-2.36-5.72-3.54-9.96-3.54c-4.24,0-7.55,1.18-9.91,3.54c-2.36,2.36-3.54,6.04-3.54,11.04v30.9
			c0,5,1.18,8.67,3.54,11.04C484.19,399.19,487.5,400.38,491.74,400.38z"/>
		<path d="M532.08,407.56c-1.03,0-2-0.26-2.93-0.77c-0.92-0.51-1.39-1.28-1.39-2.31V335.5c0-1.09,0.46-1.86,1.39-2.31
			c0.92-0.44,1.9-0.67,2.93-0.67c1.09,0,2.02,0.21,2.77,0.62c0.75,0.41,1.44,1.01,2.05,1.8c0.62,0.79,1.23,1.8,1.85,3.03
			l25.46,49.99V335.5c0-1.03,0.46-1.78,1.39-2.26c0.92-0.48,1.9-0.72,2.93-0.72c1.09,0,2.09,0.24,2.98,0.72
			c0.89,0.48,1.33,1.23,1.33,2.26v68.99c0,1.03-0.45,1.8-1.33,2.31c-0.89,0.51-1.88,0.77-2.98,0.77c-1.1,0-2.1-0.38-3.03-1.13
			c-0.92-0.75-1.69-1.68-2.31-2.77l-26.79-51.64v52.46c0,1.03-0.45,1.8-1.33,2.31C534.17,407.3,533.18,407.56,532.08,407.56z"/>
	</g>
</g>
<text transform="matrix(1 0 0 1 443.5409 439.5761)" class="st1 st2 st3">CONTROL</text>
</svg>
